<?xml version="1.0" encoding="utf-8"?><svg viewBox="0 0 69.969 72.938" xmlns="http://www.w3.org/2000/svg" xmlns:xlink="http://www.w3.org/1999/xlink"><style>:root>svg{display:none}:root>svg:target{display:block}</style><svg viewBox="0 0 40 72.938" id="arrow-left" xmlns="http://www.w3.org/2000/svg"><defs><filter id="afilter" x="150" y="475.031" width="40" height="72.938" filterUnits="userSpaceOnUse"><feFlood result="flood" flood-color="#fff"/><feComposite result="composite" operator="in" in2="SourceGraphic"/><feBlend result="blend" in2="SourceGraphic"/></filter><style>.acls-1{fill-rule:evenodd;opacity:.5;filter:url(#afilter)}</style></defs><path id="aleft" class="acls-1" d="M188.026 547.979L150.005 511.5l38.021-36.48 1.969 2-35.929 34.48L190 545.977z" transform="translate(-150 -475.031)"/></svg><svg viewBox="0 0 40 72.938" id="arrow-right" xmlns="http://www.w3.org/2000/svg"><defs><filter id="bfilter" x="1730" y="475.031" width="40" height="72.938" filterUnits="userSpaceOnUse"><feFlood result="flood" flood-color="#a5a3a0"/><feComposite result="composite" operator="in" in2="SourceGraphic"/><feBlend result="blend" in2="SourceGraphic"/></filter><style>.bcls-1{fill-rule:evenodd;filter:url(#bfilter)}</style></defs><path id="bright" class="bcls-1" d="M1731.97 547.979L1770 511.5l-38.03-36.48-1.97 2 35.93 34.476-35.93 34.481z" transform="translate(-1730 -475.031)"/></svg><svg viewBox="0 0 18 24" id="icon-cart" xmlns="http://www.w3.org/2000/svg"><defs><filter id="cfilter" x="1476" y="55" width="18" height="24" filterUnits="userSpaceOnUse"><feFlood result="flood" flood-color="#fff"/><feComposite result="composite" operator="in" in2="SourceGraphic"/><feBlend result="blend" in2="SourceGraphic"/></filter><style>.ccls-1{fill-rule:evenodd;filter:url(#cfilter)}</style></defs><path id="cicon-cart" class="ccls-1" d="M1491 58h-1.5c0-1.657-2.02-3-4.5-3s-4.5 1.344-4.5 3h-1.5a3 3 0 00-3 3v15a3 3 0 003 3h12a3 3 0 002.99-3V61a3 3 0 00-2.99-3zm-6-1.5c1.66 0 3 .464 3 1.5h-6c0-1.038 1.34-1.5 3-1.5zm7.49 19.5a1.5 1.5 0 01-1.49 1.5h-12a1.5 1.5 0 01-1.5-1.5v-1.5h14.99V76zm0-3h-14.99V61a1.5 1.5 0 011.5-1.5h1.5V64h1.5v-4.5h6V64h1.5v-4.5h1.5a1.5 1.5 0 011.49 1.5v12z" transform="translate(-1476 -55)"/></svg><svg viewBox="0 0 69.969 69.97" id="icon-play" xmlns="http://www.w3.org/2000/svg"><defs><filter id="dfilter" x="926.031" y="3634.03" width="69.969" height="69.97" filterUnits="userSpaceOnUse"><feFlood result="flood" flood-color="#fff"/><feComposite result="composite" operator="in" in2="SourceGraphic"/><feBlend result="blend" in2="SourceGraphic"/></filter><style>.dcls-1{fill-rule:evenodd;filter:url(#dfilter)}</style></defs><path id="dicon-play" class="dcls-1" d="M955.934 3685.82a2.047 2.047 0 01-2.06-2.06v-29.52a2.062 2.062 0 013.379-1.59l17.714 14.77a2.053 2.053 0 010 3.16l-17.714 14.76a2.031 2.031 0 01-1.319.48zm2.06-27.19v20.73l12.437-10.36zm2.943 45.37a34.793 34.793 0 01-17.106-4.47 2.06 2.06 0 112.021-3.59 30.921 30.921 0 10-6.7-5.09 2.059 2.059 0 11-2.913 2.91 35.057 35.057 0 1124.698 10.24z" transform="translate(-926.031 -3634.03)"/></svg><svg viewBox="0 0 24 24" id="icon-search" xmlns="http://www.w3.org/2000/svg"><defs><filter id="efilter" x="1522" y="55" width="24" height="24" filterUnits="userSpaceOnUse"><feFlood result="flood" flood-color="#fff"/><feComposite result="composite" operator="in" in2="SourceGraphic"/><feBlend result="blend" in2="SourceGraphic"/></filter><style>.ecls-1{fill-rule:evenodd;filter:url(#efilter)}</style></defs><path id="eicon-search" class="ecls-1" d="M1545.76 77.682l-6.19-6.095a9.807 9.807 0 002.62-6.658 10.1 10.1 0 10-10.1 9.934 10.183 10.183 0 006.36-2.218l6.21 6.12a.788.788 0 001.1 0 .763.763 0 000-1.083zm-13.67-4.348a8.406 8.406 0 118.54-8.405 8.477 8.477 0 01-8.54 8.405z" transform="translate(-1522 -55)"/></svg><svg viewBox="0 0 42.875 39.19" id="icon-tools-arhive" xmlns="http://www.w3.org/2000/svg"><defs><filter id="ffilter" x="790.406" y="1113.09" width="42.875" height="39.19" filterUnits="userSpaceOnUse"><feFlood result="flood" flood-color="#545454"/><feComposite result="composite" operator="in" in2="SourceGraphic"/><feBlend result="blend" in2="SourceGraphic"/></filter><style>.fcls-1{fill-rule:evenodd;filter:url(#ffilter)}</style></defs><path id="ficon" class="fcls-1" d="M811.851 1113.11l-21.437 11.56 21.437 11.56 21.436-11.56zm0 26.85l-17.452-9.41-3.985 2.15 21.437 11.55 21.436-11.55-3.985-2.15zm0 8.02l-17.452-9.41-3.985 2.15 21.437 11.56 21.436-11.56-3.985-2.15z" transform="translate(-790.406 -1113.09)"/></svg><svg viewBox="0 0 50.87 35.63" id="icon-tools-files" xmlns="http://www.w3.org/2000/svg"><defs><filter id="gfilter" x="1388.75" y="1116.34" width="50.87" height="35.63" filterUnits="userSpaceOnUse"><feFlood result="flood" flood-color="#555"/><feComposite result="composite" operator="in" in2="SourceGraphic"/><feBlend result="blend" in2="SourceGraphic"/></filter><style>.gcls-1{fill-rule:evenodd;filter:url(#gfilter)}</style></defs><path id="gicon" class="gcls-1" d="M1397 1129.25a6.787 6.787 0 015.74-3.61h26.21v-1.66a2.482 2.482 0 00-2.46-2.48h-10.82v-1.44a3.707 3.707 0 00-3.68-3.73h-6.29a3.722 3.722 0 00-3.69 3.73v1.44h-10.81a2.475 2.475 0 00-2.46 2.48v22.17zm7.47-9.19a1.266 1.266 0 01.36-.88 1.185 1.185 0 01.87-.36h6.29a1.231 1.231 0 011.23 1.24v1.44h-8.75v-1.44zm25.45 29.7a4.319 4.319 0 01-3.54 2.22h-35.3a1.417 1.417 0 01-1.37-2.22l9.49-19.42a4.333 4.333 0 013.54-2.22h35.3a1.417 1.417 0 011.37 2.22z" transform="translate(-1388.75 -1116.34)"/></svg><svg viewBox="0 0 43.56 43.56" id="icon-tools-gear" xmlns="http://www.w3.org/2000/svg"><defs><filter id="hfilter" x="1089.38" y="1108.06" width="43.56" height="43.56" filterUnits="userSpaceOnUse"><feFlood result="flood" flood-color="#555"/><feComposite result="composite" operator="in" in2="SourceGraphic"/><feBlend result="blend" in2="SourceGraphic"/></filter><style>.hcls-1{fill-rule:evenodd;filter:url(#hfilter)}</style></defs><path id="hicon" class="hcls-1" d="M1132.93 1129.85a4.327 4.327 0 00-2.61-3.86 4.623 4.623 0 01-2.88-6.97 4.161 4.161 0 00-5.46-5.46 6.019 6.019 0 01-4.23.35 5.937 5.937 0 01-2.74-3.24 4.173 4.173 0 00-7.73 0 4.634 4.634 0 01-6.97 2.89 4.161 4.161 0 00-5.46 5.46 4.636 4.636 0 01-2.88 6.97 4.159 4.159 0 000 7.72 4.623 4.623 0 012.88 6.97 4.161 4.161 0 005.46 5.46 4.634 4.634 0 016.97 2.89 4.173 4.173 0 007.73 0 4.628 4.628 0 016.97-2.89 4.161 4.161 0 005.46-5.46 4.623 4.623 0 012.88-6.97 4.327 4.327 0 002.61-3.86zm-21.79 7.99a7.985 7.985 0 117.99-7.98 7.979 7.979 0 01-7.99 7.98z" transform="translate(-1089.38 -1108.06)"/></svg><svg viewBox="0 0 47.594 47.59" id="icon-tools-pencil" xmlns="http://www.w3.org/2000/svg"><defs><filter id="ifilter" x="487.531" y="1104.88" width="47.594" height="47.59" filterUnits="userSpaceOnUse"><feFlood result="flood" flood-color="#555"/><feComposite result="composite" operator="in" in2="SourceGraphic"/><feBlend result="blend" in2="SourceGraphic"/></filter><style>.icls-1{fill-rule:evenodd;filter:url(#ifilter)}</style></defs><path id="iicon" class="icls-1" d="M534.668 1121.47a1.591 1.591 0 00-2.248 0l-13.847 13.84-19.467 8.58-3-3 8.576-19.47 13.844-13.84a1.59 1.59 0 00-2.248-2.25l-14.268 14.26-14.477 32.87 32.868-14.47 14.266-14.27a1.592 1.592 0 00.001-2.25zm-20.173 11a1.606 1.606 0 002.25 0l13.332-13.34a1.591 1.591 0 00-2.25-2.25l-13.327 13.34a1.593 1.593 0 000 2.25zm-3.48-3.48a1.606 1.606 0 002.25 0l13.333-13.34a1.591 1.591 0 00-2.25-2.25l-13.333 13.33a1.6 1.6 0 000 2.26zm-3.481-3.49a1.581 1.581 0 002.25 0l13.333-13.33a1.591 1.591 0 00-2.25-2.25l-13.333 13.33a1.593 1.593 0 000 2.25z" transform="translate(-487.531 -1104.88)"/></svg><svg viewBox="0 0 40 72.938" id="left" xmlns="http://www.w3.org/2000/svg"><defs><filter id="jfilter" x="150" y="475.031" width="40" height="72.938" filterUnits="userSpaceOnUse"><feFlood result="flood" flood-color="#fff"/><feComposite result="composite" operator="in" in2="SourceGraphic"/><feBlend result="blend" in2="SourceGraphic"/></filter><style>.jcls-1{fill-rule:evenodd;opacity:.5;filter:url(#jfilter)}</style></defs><path id="jleft" class="jcls-1" d="M188.026 547.979L150.005 511.5l38.021-36.48 1.969 2-35.929 34.48L190 545.977z" transform="translate(-150 -475.031)"/></svg><svg viewBox="0 0 63.031 55.125" id="logo" xmlns="http://www.w3.org/2000/svg"><defs><filter id="kfilter" x="376.344" y="40" width="63.031" height="55.125" filterUnits="userSpaceOnUse"><feFlood result="flood" flood-color="#fff"/><feComposite result="composite" operator="in" in2="SourceGraphic"/><feBlend result="blend" in2="SourceGraphic"/></filter><style>.kcls-1{fill-rule:evenodd;filter:url(#kfilter)}</style></defs><path id="klogos" class="kcls-1" d="M413.108 50.713H402.6l5.254 9.191zm-11.822.767l-5.254 9.191h10.508zm18.39 9.191l-5.254-9.191-5.254 9.191h10.508zM409.168 62.2l5.254 9.188 5.254-9.188h-10.508zm-13.136 0l5.254 9.188 5.254-9.188h-10.508zm-6.567 9.952h10.506l-5.253-9.187zm36.778 0l-5.253-9.187-5.252 9.187h10.5zm-18.389-32.16l-5.254 9.19h10.508zm13.136 42.882l5.253-9.188h-10.5zm-26.272 0l5.253-9.188h-10.506zm-11.821.767H393.4l-5.253-9.19zm49.914 0l-5.254-9.19-5.254 9.19h10.508zM422.3 85.172l5.254 9.187 5.254-9.187H422.3zm-13.135 0l5.254 9.187 5.254-9.187h-10.505zm-21.017 9.187l5.253-9.187H382.9zm-11.82.769h10.5l-5.254-9.188zm26.269 0h10.508l-5.254-9.188zm13.138 0h10.5l-5.253-9.188zm18.387-9.188l-5.252 9.188h10.5z" transform="translate(-376.344 -40)"/></svg></svg>