<?xml version="1.0" encoding="utf-8"?><!DOCTYPE svg PUBLIC "-//W3C//DTD SVG 1.1//EN" "http://www.w3.org/Graphics/SVG/1.1/DTD/svg11.dtd"><svg viewBox="0 0 451.846 451.847" xmlns="http://www.w3.org/2000/svg" xmlns:xlink="http://www.w3.org/1999/xlink"><style>:root>svg{display:none}:root>svg:target{display:block}</style><svg viewBox="0 0 21.969 21.97" id="arrow-blog-left" xmlns="http://www.w3.org/2000/svg"><defs><filter id="afilter" x="935" y="5760.03" width="21.969" height="21.97" filterUnits="userSpaceOnUse"><feFlood result="flood" flood-color="#d1d1d1"/><feComposite result="composite" operator="in" in2="SourceGraphic"/><feBlend result="blend" in2="SourceGraphic"/></filter><style>.acls-1{fill-rule:evenodd;filter:url(#afilter)}</style></defs><path id="aleft" class="acls-1" d="M942.583 5770.43l4.772-4.77a.735.735 0 011.04 1.04l-4.254 4.26 4.254 4.25a.735.735 0 01-1.04 1.04l-4.772-4.77a.731.731 0 01-.216-.52.759.759 0 01.216-.53zm3.4-10.4A10.98 10.98 0 11935 5771.01a10.979 10.979 0 0110.987-10.98zm0 20.49a9.51 9.51 0 10-9.512-9.51 9.526 9.526 0 009.516 9.51z" transform="translate(-935 -5760.03)"/></svg><svg viewBox="0 0 21.969 21.97" id="arrow-blog-right" xmlns="http://www.w3.org/2000/svg"><defs><filter id="bfilter" x="965.031" y="5760.03" width="21.969" height="21.97" filterUnits="userSpaceOnUse"><feFlood result="flood" flood-color="#d1d1d1"/><feComposite result="composite" operator="in" in2="SourceGraphic"/><feBlend result="blend" in2="SourceGraphic"/></filter><style>.bcls-1{fill-rule:evenodd;filter:url(#bfilter)}</style></defs><path id="bright" class="bcls-1" d="M979.417 5770.43l-4.772-4.77a.735.735 0 00-1.04 1.04l4.254 4.26-4.254 4.25a.735.735 0 001.04 1.04l4.772-4.77a.731.731 0 00.216-.52.759.759 0 00-.216-.53zm-3.405-10.4A10.98 10.98 0 10987 5771.01a10.978 10.978 0 00-10.988-10.98zm0 20.49a9.51 9.51 0 119.513-9.51 9.526 9.526 0 01-9.513 9.51z" transform="translate(-965.031 -5760.03)"/></svg><svg viewBox="0 0 40 72.938" id="arrow-left" xmlns="http://www.w3.org/2000/svg"><defs><filter id="cfilter" x="150" y="475.031" width="40" height="72.938" filterUnits="userSpaceOnUse"><feFlood result="flood" flood-color="#fff"/><feComposite result="composite" operator="in" in2="SourceGraphic"/><feBlend result="blend" in2="SourceGraphic"/></filter><style>.ccls-1{fill-rule:evenodd;opacity:.5;filter:url(#cfilter)}</style></defs><path id="cleft" class="ccls-1" d="M188.026 547.979L150.005 511.5l38.021-36.48 1.969 2-35.929 34.48L190 545.977z" transform="translate(-150 -475.031)"/></svg><svg viewBox="0 0 40 72.938" id="arrow-right" xmlns="http://www.w3.org/2000/svg"><defs><filter id="dfilter" x="1730" y="475.031" width="40" height="72.938" filterUnits="userSpaceOnUse"><feFlood result="flood" flood-color="#a5a3a0"/><feComposite result="composite" operator="in" in2="SourceGraphic"/><feBlend result="blend" in2="SourceGraphic"/></filter><style>.dcls-1{fill-rule:evenodd;filter:url(#dfilter)}</style></defs><path id="dright" class="dcls-1" d="M1731.97 547.979L1770 511.5l-38.03-36.48-1.97 2 35.93 34.476-35.93 34.481z" transform="translate(-1730 -475.031)"/></svg><svg viewBox="0 0 18 24" id="icon-cart" xmlns="http://www.w3.org/2000/svg"><defs><filter id="efilter" x="1476" y="55" width="18" height="24" filterUnits="userSpaceOnUse"><feFlood result="flood" flood-color="#fff"/><feComposite result="composite" operator="in" in2="SourceGraphic"/><feBlend result="blend" in2="SourceGraphic"/></filter><style>.ecls-1{fill-rule:evenodd;filter:url(#efilter)}</style></defs><path id="eicon-cart" class="ecls-1" d="M1491 58h-1.5c0-1.657-2.02-3-4.5-3s-4.5 1.344-4.5 3h-1.5a3 3 0 00-3 3v15a3 3 0 003 3h12a3 3 0 002.99-3V61a3 3 0 00-2.99-3zm-6-1.5c1.66 0 3 .464 3 1.5h-6c0-1.038 1.34-1.5 3-1.5zm7.49 19.5a1.5 1.5 0 01-1.49 1.5h-12a1.5 1.5 0 01-1.5-1.5v-1.5h14.99V76zm0-3h-14.99V61a1.5 1.5 0 011.5-1.5h1.5V64h1.5v-4.5h6V64h1.5v-4.5h1.5a1.5 1.5 0 011.49 1.5v12z" transform="translate(-1476 -55)"/></svg><svg viewBox="0 0 48 44" id="icon-number-coffe" xmlns="http://www.w3.org/2000/svg"><defs><filter id="ffilter" x="736" y="4878" width="48" height="44" filterUnits="userSpaceOnUse"><feFlood result="flood" flood-color="#c7b299"/><feComposite result="composite" operator="in" in2="SourceGraphic"/><feBlend result="blend" in2="SourceGraphic"/></filter><style>.fcls-1{fill-rule:evenodd;filter:url(#ffilter)}</style></defs><path id="ficon" class="fcls-1" d="M782.043 4920.75a1.242 1.242 0 01-1.234 1.25h-43.575a1.25 1.25 0 010-2.5h43.575a1.242 1.242 0 011.234 1.25zm-24.274-20.54a1.215 1.215 0 001.744-.06 1.266 1.266 0 00-.06-1.77c-2.116-2-1.663-6.07.155-8.37 2.467-3.12 3.01-8.68-.155-11.67a1.219 1.219 0 00-1.744.06 1.266 1.266 0 00.06 1.77c1.9 1.79 1.858 5.82-.087 8.28a10.169 10.169 0 00-2.1 5.95 7.571 7.571 0 002.187 5.81zm26.231-2.6v2.4a6.205 6.205 0 01-6.154 6.24h-2.755a13.513 13.513 0 01-12.686 9.05h-6.766a13.579 13.579 0 01-13.476-13.66v-12.41a1.242 1.242 0 011.234-1.25h7.915c1.606-2.48 1.535-6.13-.249-7.81a1.266 1.266 0 01-.06-1.77 1.219 1.219 0 011.744-.06c3.164 2.99 2.621 8.55.155 11.67-1.819 2.3-2.272 6.37-.155 8.37a1.266 1.266 0 01.06 1.77 1.219 1.219 0 01-1.744.06 7.571 7.571 0 01-2.184-5.81 10.44 10.44 0 01.881-3.92h-5.13v11.16a11.094 11.094 0 0011.009 11.16h6.766a11.093 11.093 0 0011.008-11.16v-11.16h-9.278a1.25 1.25 0 010-2.5h10.512a1.242 1.242 0 011.234 1.25v2.15h1.965a6.2 6.2 0 016.154 6.23zm-2.468 0a3.711 3.711 0 00-3.686-3.73h-1.965v9.87h1.965a3.719 3.719 0 003.686-3.74v-2.4z" transform="translate(-736 -4878)"/></svg><svg viewBox="0 0 44 44" id="icon-number-face" xmlns="http://www.w3.org/2000/svg"><defs><filter id="gfilter" x="540" y="4878" width="44" height="44" filterUnits="userSpaceOnUse"><feFlood result="flood" flood-color="#c7b299"/><feComposite result="composite" operator="in" in2="SourceGraphic"/><feBlend result="blend" in2="SourceGraphic"/></filter><style>.gcls-1{fill-rule:evenodd;filter:url(#gfilter)}</style></defs><path id="gicon" class="gcls-1" d="M559.937 4908.25c5.688 0 10.313-5.63 10.313-12.55s-4.625-12.54-10.313-12.54a9.441 9.441 0 00-7.394 3.78 14.037 14.037 0 00-2.918 8.76c0 6.92 4.625 12.55 10.312 12.55zm0-22.34c4.17 0 7.563 4.39 7.563 9.79s-3.393 9.8-7.563 9.8-7.562-4.39-7.565-9.8 3.393-9.79 7.565-9.79zm8.661 20.96a1.375 1.375 0 100 2.75 8.541 8.541 0 018.527 8.53 1.1 1.1 0 01-1.1 1.1h-32.177a1.1 1.1 0 01-1.1-1.1 8.539 8.539 0 018.524-8.53 1.375 1.375 0 100-2.75A11.289 11.289 0 00540 4918.15a3.856 3.856 0 003.848 3.85h32.176a3.857 3.857 0 003.851-3.85 11.292 11.292 0 00-11.275-11.28zm-7.655-25.24a6.084 6.084 0 013.119-.88c4.17 0 7.563 4.4 7.563 9.8a12.42 12.42 0 01-.32 2.83 1.379 1.379 0 001.024 1.65 1.688 1.688 0 00.315.03 1.369 1.369 0 001.338-1.06 15.2 15.2 0 00.393-3.45c0-6.92-4.625-12.55-10.313-12.55a8.936 8.936 0 00-4.518 1.26 1.376 1.376 0 001.399 2.37zM573 4901.37a1.375 1.375 0 100 2.75 8.386 8.386 0 018.25 8.62 1.068 1.068 0 01-.094.45 1.38 1.38 0 00.7 1.82 1.4 1.4 0 001.816-.7 3.878 3.878 0 00.33-1.57A11.142 11.142 0 00573 4901.37z" transform="translate(-540 -4878)"/></svg><svg viewBox="0 0 54 44" id="icon-number-food" xmlns="http://www.w3.org/2000/svg"><defs><filter id="hfilter" x="1333" y="4878" width="54" height="44" filterUnits="userSpaceOnUse"><feFlood result="flood" flood-color="#c7b299"/><feComposite result="composite" operator="in" in2="SourceGraphic"/><feBlend result="blend" in2="SourceGraphic"/></filter><style>.hcls-1{fill-rule:evenodd;filter:url(#hfilter)}</style></defs><path id="hicon" class="hcls-1" d="M1385.31 4918.61h-50.62a1.7 1.7 0 000 3.39h50.62a1.7 1.7 0 000-3.39zm-23.62-33.84v-3.38h3.37a1.7 1.7 0 000-3.39h-10.12a1.7 1.7 0 000 3.39h3.37s-.01 3.52 0 3.38a27.1 27.1 0 00-25.31 27.07v1.7a1.694 1.694 0 001.69 1.69h50.62a1.694 1.694 0 001.69-1.69v-1.7a27.1 27.1 0 00-25.31-27.07zm-25.31 27.07a23.62 23.62 0 1147.24 0h-47.24z" transform="translate(-1333 -4878)"/></svg><svg viewBox="0 0 44 44" id="icon-number-heart" xmlns="http://www.w3.org/2000/svg"><defs><filter id="ifilter" x="1139" y="4878" width="44" height="44" filterUnits="userSpaceOnUse"><feFlood result="flood" flood-color="#c7b299"/><feComposite result="composite" operator="in" in2="SourceGraphic"/><feBlend result="blend" in2="SourceGraphic"/></filter><style>.icls-1{fill-rule:evenodd;filter:url(#ifilter)}</style></defs><path id="iicon" class="icls-1" d="M1169.25 4878c-.42 0-.85.03-1.27.06l-.46.06c-.25.03-.51.07-.76.12-.19.03-.38.07-.56.11-.21.05-.42.11-.63.16s-.39.11-.59.18a5.442 5.442 0 00-.52.19 12.305 12.305 0 00-1.34.58 2.1 2.1 0 00-.26.13c-.23.12-.45.25-.68.39-.12.07-.24.14-.36.22-.22.14-.42.28-.63.43a2.141 2.141 0 01-.19.13 13.74 13.74 0 00-22 10.99c0 12.44 8 23.7 21.41 30.11a1.313 1.313 0 001.18 0c13.41-6.41 21.41-17.67 21.41-30.11a13.768 13.768 0 00-13.75-13.75zm-8.25 41.1c-12.07-5.99-19.25-16.17-19.25-27.35a10.974 10.974 0 0117.19-9.07 13.728 13.728 0 00-3.44 9.07 1.375 1.375 0 002.75 0 11.007 11.007 0 013.72-8.23c.21-.19.43-.36.66-.53l.15-.12c.22-.16.44-.31.67-.45.06-.04.13-.08.19-.12.22-.13.45-.25.68-.37l.24-.12c.22-.1.45-.2.67-.29.1-.04.2-.07.31-.11.21-.08.43-.15.64-.21.14-.04.26-.08.4-.11.2-.05.39-.1.59-.14.18-.03.37-.05.55-.08.15-.02.31-.05.47-.07.35-.03.7-.05 1.06-.05a11.007 11.007 0 0111 11c0 11.18-7.18 21.36-19.25 27.35zm8.25-35.6a1.375 1.375 0 100 2.75 5.51 5.51 0 015.5 5.5 1.375 1.375 0 002.75 0 8.258 8.258 0 00-8.25-8.25z" transform="translate(-1139 -4878)"/></svg><svg viewBox="0 0 44 44" id="icon-number-message" xmlns="http://www.w3.org/2000/svg"><defs><filter id="jfilter" x="939" y="4878" width="44" height="44" filterUnits="userSpaceOnUse"><feFlood result="flood" flood-color="#c7b299"/><feComposite result="composite" operator="in" in2="SourceGraphic"/><feBlend result="blend" in2="SourceGraphic"/></filter><style>.jcls-1{fill-rule:evenodd;filter:url(#jfilter)}</style></defs><path id="jicon" class="jcls-1" d="M967.873 4901.37h-13.747a1.375 1.375 0 100 2.75h13.747a1.375 1.375 0 100-2.75zm2.749-8.24h-19.246a1.37 1.37 0 100 2.74h19.246a1.37 1.37 0 100-2.74zM961 4878c-12.147 0-22 8.62-22 19.25a18.431 18.431 0 008.249 15.01v9.74l9.635-5.85a25.236 25.236 0 004.112.35c12.149 0 22-8.62 22-19.25S973.148 4878 961 4878zm0 35.75a22.075 22.075 0 01-4.646-.51l-6.473 3.89.087-6.37c-4.962-2.99-8.214-7.92-8.214-13.51 0-9.11 8.617-16.5 19.246-16.5s19.247 7.39 19.247 16.5-8.618 16.5-19.247 16.5z" transform="translate(-939 -4878)"/></svg><svg viewBox="0 0 69.969 69.97" id="icon-play" xmlns="http://www.w3.org/2000/svg"><defs><filter id="kfilter" x="926.031" y="3634.03" width="69.969" height="69.97" filterUnits="userSpaceOnUse"><feFlood result="flood" flood-color="#fff"/><feComposite result="composite" operator="in" in2="SourceGraphic"/><feBlend result="blend" in2="SourceGraphic"/></filter><style>.kcls-1{fill-rule:evenodd;filter:url(#kfilter)}</style></defs><path id="kicon-play" class="kcls-1" d="M955.934 3685.82a2.047 2.047 0 01-2.06-2.06v-29.52a2.062 2.062 0 013.379-1.59l17.714 14.77a2.053 2.053 0 010 3.16l-17.714 14.76a2.031 2.031 0 01-1.319.48zm2.06-27.19v20.73l12.437-10.36zm2.943 45.37a34.793 34.793 0 01-17.106-4.47 2.06 2.06 0 112.021-3.59 30.921 30.921 0 10-6.7-5.09 2.059 2.059 0 11-2.913 2.91 35.057 35.057 0 1124.698 10.24z" transform="translate(-926.031 -3634.03)"/></svg><svg viewBox="0 0 24 24" id="icon-search" xmlns="http://www.w3.org/2000/svg"><defs><filter id="lfilter" x="1522" y="55" width="24" height="24" filterUnits="userSpaceOnUse"><feFlood result="flood" flood-color="#fff"/><feComposite result="composite" operator="in" in2="SourceGraphic"/><feBlend result="blend" in2="SourceGraphic"/></filter><style>.lcls-1{fill-rule:evenodd;filter:url(#lfilter)}</style></defs><path id="licon-search" class="lcls-1" d="M1545.76 77.682l-6.19-6.095a9.807 9.807 0 002.62-6.658 10.1 10.1 0 10-10.1 9.934 10.183 10.183 0 006.36-2.218l6.21 6.12a.788.788 0 001.1 0 .763.763 0 000-1.083zm-13.67-4.348a8.406 8.406 0 118.54-8.405 8.477 8.477 0 01-8.54 8.405z" transform="translate(-1522 -55)"/></svg><svg viewBox="0 0 42.875 39.19" id="icon-tools-arhive" xmlns="http://www.w3.org/2000/svg"><defs><filter id="mfilter" x="790.406" y="1113.09" width="42.875" height="39.19" filterUnits="userSpaceOnUse"><feFlood result="flood" flood-color="#545454"/><feComposite result="composite" operator="in" in2="SourceGraphic"/><feBlend result="blend" in2="SourceGraphic"/></filter><style>.mcls-1{fill-rule:evenodd;filter:url(#mfilter)}</style></defs><path id="micon" class="mcls-1" d="M811.851 1113.11l-21.437 11.56 21.437 11.56 21.436-11.56zm0 26.85l-17.452-9.41-3.985 2.15 21.437 11.55 21.436-11.55-3.985-2.15zm0 8.02l-17.452-9.41-3.985 2.15 21.437 11.56 21.436-11.56-3.985-2.15z" transform="translate(-790.406 -1113.09)"/></svg><svg viewBox="0 0 50.87 35.63" id="icon-tools-files" xmlns="http://www.w3.org/2000/svg"><defs><filter id="nfilter" x="1388.75" y="1116.34" width="50.87" height="35.63" filterUnits="userSpaceOnUse"><feFlood result="flood" flood-color="#555"/><feComposite result="composite" operator="in" in2="SourceGraphic"/><feBlend result="blend" in2="SourceGraphic"/></filter><style>.ncls-1{fill-rule:evenodd;filter:url(#nfilter)}</style></defs><path id="nicon" class="ncls-1" d="M1397 1129.25a6.787 6.787 0 015.74-3.61h26.21v-1.66a2.482 2.482 0 00-2.46-2.48h-10.82v-1.44a3.707 3.707 0 00-3.68-3.73h-6.29a3.722 3.722 0 00-3.69 3.73v1.44h-10.81a2.475 2.475 0 00-2.46 2.48v22.17zm7.47-9.19a1.266 1.266 0 01.36-.88 1.185 1.185 0 01.87-.36h6.29a1.231 1.231 0 011.23 1.24v1.44h-8.75v-1.44zm25.45 29.7a4.319 4.319 0 01-3.54 2.22h-35.3a1.417 1.417 0 01-1.37-2.22l9.49-19.42a4.333 4.333 0 013.54-2.22h35.3a1.417 1.417 0 011.37 2.22z" transform="translate(-1388.75 -1116.34)"/></svg><svg viewBox="0 0 43.56 43.56" id="icon-tools-gear" xmlns="http://www.w3.org/2000/svg"><defs><filter id="ofilter" x="1089.38" y="1108.06" width="43.56" height="43.56" filterUnits="userSpaceOnUse"><feFlood result="flood" flood-color="#555"/><feComposite result="composite" operator="in" in2="SourceGraphic"/><feBlend result="blend" in2="SourceGraphic"/></filter><style>.ocls-1{fill-rule:evenodd;filter:url(#ofilter)}</style></defs><path id="oicon" class="ocls-1" d="M1132.93 1129.85a4.327 4.327 0 00-2.61-3.86 4.623 4.623 0 01-2.88-6.97 4.161 4.161 0 00-5.46-5.46 6.019 6.019 0 01-4.23.35 5.937 5.937 0 01-2.74-3.24 4.173 4.173 0 00-7.73 0 4.634 4.634 0 01-6.97 2.89 4.161 4.161 0 00-5.46 5.46 4.636 4.636 0 01-2.88 6.97 4.159 4.159 0 000 7.72 4.623 4.623 0 012.88 6.97 4.161 4.161 0 005.46 5.46 4.634 4.634 0 016.97 2.89 4.173 4.173 0 007.73 0 4.628 4.628 0 016.97-2.89 4.161 4.161 0 005.46-5.46 4.623 4.623 0 012.88-6.97 4.327 4.327 0 002.61-3.86zm-21.79 7.99a7.985 7.985 0 117.99-7.98 7.979 7.979 0 01-7.99 7.98z" transform="translate(-1089.38 -1108.06)"/></svg><svg viewBox="0 0 47.594 47.59" id="icon-tools-pencil" xmlns="http://www.w3.org/2000/svg"><defs><filter id="pfilter" x="487.531" y="1104.88" width="47.594" height="47.59" filterUnits="userSpaceOnUse"><feFlood result="flood" flood-color="#555"/><feComposite result="composite" operator="in" in2="SourceGraphic"/><feBlend result="blend" in2="SourceGraphic"/></filter><style>.pcls-1{fill-rule:evenodd;filter:url(#pfilter)}</style></defs><path id="picon" class="pcls-1" d="M534.668 1121.47a1.591 1.591 0 00-2.248 0l-13.847 13.84-19.467 8.58-3-3 8.576-19.47 13.844-13.84a1.59 1.59 0 00-2.248-2.25l-14.268 14.26-14.477 32.87 32.868-14.47 14.266-14.27a1.592 1.592 0 00.001-2.25zm-20.173 11a1.606 1.606 0 002.25 0l13.332-13.34a1.591 1.591 0 00-2.25-2.25l-13.327 13.34a1.593 1.593 0 000 2.25zm-3.48-3.48a1.606 1.606 0 002.25 0l13.333-13.34a1.591 1.591 0 00-2.25-2.25l-13.333 13.33a1.6 1.6 0 000 2.26zm-3.481-3.49a1.581 1.581 0 002.25 0l13.333-13.33a1.591 1.591 0 00-2.25-2.25l-13.333 13.33a1.593 1.593 0 000 2.25z" transform="translate(-487.531 -1104.88)"/></svg><svg viewBox="0 0 40 72.938" id="left" xmlns="http://www.w3.org/2000/svg"><defs><filter id="qfilter" x="150" y="475.031" width="40" height="72.938" filterUnits="userSpaceOnUse"><feFlood result="flood" flood-color="#fff"/><feComposite result="composite" operator="in" in2="SourceGraphic"/><feBlend result="blend" in2="SourceGraphic"/></filter><style>.qcls-1{fill-rule:evenodd;opacity:.5;filter:url(#qfilter)}</style></defs><path id="qleft" class="qcls-1" d="M188.026 547.979L150.005 511.5l38.021-36.48 1.969 2-35.929 34.48L190 545.977z" transform="translate(-150 -475.031)"/></svg><svg viewBox="0 0 24.624 24.62" id="link" xmlns="http://www.w3.org/2000/svg"><defs><filter id="rfilter" x="920.688" y="2641.72" width="24.624" height="24.62" filterUnits="userSpaceOnUse"><feFlood result="flood" flood-color="#c7b299"/><feComposite result="composite" operator="in" in2="SourceGraphic"/><feBlend result="blend" in2="SourceGraphic"/></filter><style>.rcls-1{fill-rule:evenodd;filter:url(#rfilter)}</style></defs><path id="rlink" class="rcls-1" d="M943.5 2643.49a6.208 6.208 0 00-8.743 0l-4.721 4.73a7.1 7.1 0 014.908.37l2.454-2.45a2.447 2.447 0 013.46 3.46l-3.085 3.09-2.028 2.02a2.438 2.438 0 01-3.46 0l-2.641 2.65a6.064 6.064 0 002.079 1.36 6.237 6.237 0 006.153-.9 4.686 4.686 0 00.511-.46l3.187-3.19 1.926-1.93a6.18 6.18 0 000-8.75zm-12.561 16.03l-2.352 2.36a2.447 2.447 0 01-3.46-3.46l5.113-5.12a2.457 2.457 0 013.46 0l2.642-2.64a5.97 5.97 0 00-2.079-1.37 6.206 6.206 0 00-6.426 1.14 3.111 3.111 0 00-.239.23l-5.113 5.11a6.185 6.185 0 008.744 8.75l4.618-4.67c-2.347.54-2.898.48-4.909-.33z" transform="translate(-920.688 -2641.72)"/></svg><svg viewBox="0 0 451.846 451.847" id="list-arrows-right" xmlns="http://www.w3.org/2000/svg"><path d="M345.441 248.292L151.154 442.573c-12.359 12.365-32.397 12.365-44.75 0-12.354-12.354-12.354-32.391 0-44.744L278.318 225.92 106.409 54.017c-12.354-12.359-12.354-32.394 0-44.748 12.354-12.359 32.391-12.359 44.75 0l194.287 194.284c6.177 6.18 9.262 14.271 9.262 22.366 0 8.099-3.091 16.196-9.267 22.373z"/></svg><svg viewBox="0 0 63.031 55.125" id="logo" xmlns="http://www.w3.org/2000/svg"><defs><filter id="tfilter" x="376.344" y="40" width="63.031" height="55.125" filterUnits="userSpaceOnUse"><feFlood result="flood" flood-color="#fff"/><feComposite result="composite" operator="in" in2="SourceGraphic"/><feBlend result="blend" in2="SourceGraphic"/></filter><style>.tcls-1{fill-rule:evenodd;filter:url(#tfilter)}</style></defs><path id="tlogos" class="tcls-1" d="M413.108 50.713H402.6l5.254 9.191zm-11.822.767l-5.254 9.191h10.508zm18.39 9.191l-5.254-9.191-5.254 9.191h10.508zM409.168 62.2l5.254 9.188 5.254-9.188h-10.508zm-13.136 0l5.254 9.188 5.254-9.188h-10.508zm-6.567 9.952h10.506l-5.253-9.187zm36.778 0l-5.253-9.187-5.252 9.187h10.5zm-18.389-32.16l-5.254 9.19h10.508zm13.136 42.882l5.253-9.188h-10.5zm-26.272 0l5.253-9.188h-10.506zm-11.821.767H393.4l-5.253-9.19zm49.914 0l-5.254-9.19-5.254 9.19h10.508zM422.3 85.172l5.254 9.187 5.254-9.187H422.3zm-13.135 0l5.254 9.187 5.254-9.187h-10.505zm-21.017 9.187l5.253-9.187H382.9zm-11.82.769h10.5l-5.254-9.188zm26.269 0h10.508l-5.254-9.188zm13.138 0h10.5l-5.253-9.188zm18.387-9.188l-5.252 9.188h10.5z" transform="translate(-376.344 -40)"/></svg><svg viewBox="0 0 25.157 24.47" id="search-link" xmlns="http://www.w3.org/2000/svg"><defs><filter id="ufilter" x="974.781" y="2641.19" width="25.157" height="24.47" filterUnits="userSpaceOnUse"><feFlood result="flood" flood-color="#fff"/><feComposite result="composite" operator="in" in2="SourceGraphic"/><feBlend result="blend" in2="SourceGraphic"/></filter><style>.ucls-1{fill-rule:evenodd;filter:url(#ufilter)}</style></defs><path id="ulupa" class="ucls-1" d="M985.3 2645.08a1.3 1.3 0 100 2.59 4.156 4.156 0 013.748 2.31 1.327 1.327 0 001.758.6 1.284 1.284 0 00.607-1.73 6.756 6.756 0 00-6.113-3.77zm14.152 17.8l-4.383-4.32a10.838 10.838 0 002.068-6.36 11.158 11.158 0 10-4.346 8.7l4.335 4.27a1.649 1.649 0 002.326 0 1.6 1.6 0 00.004-2.29zm-22.047-10.68a8.552 8.552 0 0117.1 0 8.4 8.4 0 01-3.029 6.42 8.561 8.561 0 01-14.067-6.42z" transform="translate(-974.781 -2641.19)"/></svg></svg>